# Blender v2.77 (sub 0) OBJ File: 'ChestOfDrawers.blend'
# www.blender.org
mtllib Chest.mtl
o Knobs
v 1.000000 0.595939 0.731140
v 1.000000 0.595939 0.766894
v 1.043607 0.581770 0.731140
v 1.043607 0.581770 0.766894
v 1.070558 0.544676 0.731140
v 1.070558 0.544676 0.766894
v 1.070558 0.498824 0.731140
v 1.070558 0.498824 0.766894
v 1.043607 0.461729 0.731140
v 1.043607 0.461729 0.766894
v 1.000000 0.447560 0.731140
v 1.000000 0.447560 0.766894
v 0.956392 0.461729 0.731140
v 0.956392 0.461729 0.766894
v 0.929441 0.498824 0.731140
v 0.929441 0.498824 0.766894
v 0.929441 0.544676 0.731140
v 0.929441 0.544676 0.766894
v 0.956392 0.581770 0.731140
v 0.956392 0.581770 0.766894
v -1.000000 0.595939 0.731140
v -1.000000 0.595939 0.766894
v -0.956392 0.581770 0.731140
v -0.956392 0.581770 0.766894
v -0.929441 0.544676 0.731140
v -0.929441 0.544676 0.766894
v -0.929441 0.498824 0.731140
v -0.929441 0.498824 0.766894
v -0.956392 0.461729 0.731140
v -0.956392 0.461729 0.766894
v -1.000000 0.447560 0.731140
v -1.000000 0.447560 0.766894
v -1.043607 0.461729 0.731140
v -1.043607 0.461729 0.766894
v -1.070558 0.498824 0.731140
v -1.070558 0.498824 0.766894
v -1.070558 0.544676 0.731140
v -1.070558 0.544676 0.766894
v -1.043607 0.581770 0.731140
v -1.043607 0.581770 0.766894
v 1.000000 1.495939 0.731140
v 1.000000 1.495939 0.766894
v 1.043607 1.481770 0.731140
v 1.043607 1.481770 0.766894
v 1.070558 1.444675 0.731140
v 1.070558 1.444675 0.766894
v 1.070558 1.398824 0.731140
v 1.070558 1.398824 0.766894
v 1.043607 1.361729 0.731140
v 1.043607 1.361729 0.766894
v 1.000000 1.347560 0.731140
v 1.000000 1.347560 0.766894
v 0.956392 1.361729 0.731140
v 0.956392 1.361729 0.766894
v 0.929441 1.398824 0.731140
v 0.929441 1.398824 0.766894
v 0.929441 1.444675 0.731140
v 0.929441 1.444675 0.766894
v 0.956392 1.481770 0.731140
v 0.956392 1.481770 0.766894
v -1.000000 1.495939 0.731140
v -1.000000 1.495939 0.766894
v -0.956392 1.481770 0.731140
v -0.956392 1.481770 0.766894
v -0.929441 1.444675 0.731140
v -0.929441 1.444675 0.766894
v -0.929441 1.398824 0.731140
v -0.929441 1.398824 0.766894
v -0.956392 1.361729 0.731140
v -0.956392 1.361729 0.766894
v -1.000000 1.347560 0.731140
v -1.000000 1.347560 0.766894
v -1.043607 1.361729 0.731140
v -1.043607 1.361729 0.766894
v -1.070558 1.398824 0.731140
v -1.070558 1.398824 0.766894
v -1.070558 1.444675 0.731140
v -1.070558 1.444675 0.766894
v -1.043607 1.481770 0.731140
v -1.043607 1.481770 0.766894
v 1.000000 2.395939 0.731140
v 1.000000 2.395939 0.766894
v 1.043607 2.381770 0.731140
v 1.043607 2.381770 0.766894
v 1.070558 2.344676 0.731140
v 1.070558 2.344676 0.766894
v 1.070558 2.298824 0.731140
v 1.070558 2.298824 0.766894
v 1.043607 2.261729 0.731140
v 1.043607 2.261729 0.766894
v 1.000000 2.247560 0.731140
v 1.000000 2.247560 0.766894
v 0.956392 2.261729 0.731140
v 0.956392 2.261729 0.766894
v 0.929441 2.298824 0.731140
v 0.929441 2.298824 0.766894
v 0.929441 2.344676 0.731140
v 0.929441 2.344676 0.766894
v 0.956392 2.381770 0.731140
v 0.956392 2.381770 0.766894
v -1.000000 2.395939 0.731140
v -1.000000 2.395939 0.766894
v -0.956392 2.381770 0.731140
v -0.956392 2.381770 0.766894
v -0.929441 2.344676 0.731140
v -0.929441 2.344676 0.766894
v -0.929441 2.298824 0.731140
v -0.929441 2.298824 0.766894
v -0.956392 2.261729 0.731140
v -0.956392 2.261729 0.766894
v -1.000000 2.247560 0.731140
v -1.000000 2.247560 0.766894
v -1.043607 2.261729 0.731140
v -1.043607 2.261729 0.766894
v -1.070558 2.298824 0.731140
v -1.070558 2.298824 0.766894
v -1.070558 2.344676 0.731140
v -1.070558 2.344676 0.766894
v -1.043607 2.381770 0.731140
v -1.043607 2.381770 0.766894
v 1.000000 3.295939 0.731140
v 1.000000 3.295939 0.766894
v 1.043607 3.281770 0.731140
v 1.043607 3.281770 0.766894
v 1.070558 3.244676 0.731140
v 1.070558 3.244676 0.766894
v 1.070558 3.198824 0.731140
v 1.070558 3.198824 0.766894
v 1.043607 3.161729 0.731140
v 1.043607 3.161729 0.766894
v 1.000000 3.147560 0.731140
v 1.000000 3.147560 0.766894
v 0.956392 3.161729 0.731140
v 0.956392 3.161729 0.766894
v 0.929441 3.198824 0.731140
v 0.929441 3.198824 0.766894
v 0.929441 3.244676 0.731140
v 0.929441 3.244676 0.766894
v 0.956392 3.281770 0.731140
v 0.956392 3.281770 0.766894
v -1.000000 3.295939 0.731140
v -1.000000 3.295939 0.766894
v -0.956392 3.281770 0.731140
v -0.956392 3.281770 0.766894
v -0.929441 3.244676 0.731140
v -0.929441 3.244676 0.766894
v -0.929441 3.198824 0.731140
v -0.929441 3.198824 0.766894
v -0.956392 3.161729 0.731140
v -0.956392 3.161729 0.766894
v -1.000000 3.147560 0.731140
v -1.000000 3.147560 0.766894
v -1.043607 3.161729 0.731140
v -1.043607 3.161729 0.766894
v -1.070558 3.198824 0.731140
v -1.070558 3.198824 0.766894
v -1.070558 3.244676 0.731140
v -1.070558 3.244676 0.766894
v -1.043607 3.281770 0.731140
v -1.043607 3.281770 0.766894
v 1.000000 4.195940 0.731140
v 1.000000 4.195940 0.766894
v 1.043608 4.181770 0.731140
v 1.043608 4.181770 0.766894
v 1.070559 4.144676 0.731140
v 1.070559 4.144676 0.766894
v 1.070558 4.098824 0.731140
v 1.070558 4.098824 0.766894
v 1.043608 4.061729 0.731140
v 1.043608 4.061729 0.766894
v 1.000000 4.047560 0.731140
v 1.000000 4.047560 0.766894
v 0.956392 4.061729 0.731140
v 0.956392 4.061729 0.766894
v 0.929442 4.098824 0.731140
v 0.929442 4.098824 0.766894
v 0.929442 4.144676 0.731140
v 0.929442 4.144676 0.766894
v 0.956392 4.181770 0.731140
v 0.956392 4.181770 0.766894
v -1.000000 4.195940 0.731140
v -1.000000 4.195940 0.766894
v -0.956392 4.181770 0.731140
v -0.956392 4.181770 0.766894
v -0.929441 4.144676 0.731140
v -0.929441 4.144676 0.766894
v -0.929441 4.098824 0.731140
v -0.929441 4.098824 0.766894
v -0.956392 4.061729 0.731140
v -0.956392 4.061729 0.766894
v -1.000000 4.047560 0.731140
v -1.000000 4.047560 0.766894
v -1.043607 4.061729 0.731140
v -1.043607 4.061729 0.766894
v -1.070558 4.098824 0.731140
v -1.070558 4.098824 0.766894
v -1.070558 4.144676 0.731140
v -1.070558 4.144676 0.766894
v -1.043607 4.181770 0.731140
v -1.043607 4.181770 0.766894
vn 0.000000 0.765300 0.643700
vn 0.449800 0.619100 -0.643700
vn 0.000000 0.765300 -0.643700
vn 0.449800 0.619100 0.643700
vn 0.727800 0.236500 -0.643700
vn 0.727800 0.236500 0.643700
vn 0.727800 -0.236500 -0.643700
vn 0.727800 -0.236500 0.643700
vn 0.449800 -0.619100 -0.643700
vn 0.449800 -0.619100 0.643700
vn 0.000000 -0.765300 -0.643700
vn 0.000000 -0.765300 0.643700
vn -0.449800 -0.619100 -0.643700
vn -0.449800 -0.619100 0.643700
vn -0.727800 -0.236500 -0.643700
vn -0.727800 -0.236500 0.643700
vn -0.727800 0.236500 -0.643700
vn -0.727800 0.236500 0.643700
vn -0.449800 0.619100 0.643700
vn -0.449800 0.619100 -0.643700
usemtl tvBlack
s 1
f 2//1 3//2 1//3
f 4//4 5//5 3//2
f 6//6 7//7 5//5
f 8//8 9//9 7//7
f 10//10 11//11 9//9
f 12//12 13//13 11//11
f 14//14 15//15 13//13
f 16//16 17//17 15//15
f 18//18 10//10 2//1
f 20//19 1//3 19//20
f 18//18 19//20 17//17
f 7//7 15//15 19//20
f 22//1 23//2 21//3
f 24//4 25//5 23//2
f 26//6 27//7 25//5
f 28//8 29//9 27//7
f 30//10 31//11 29//9
f 32//12 33//13 31//11
f 34//14 35//15 33//13
f 36//16 37//17 35//15
f 38//18 28//8 26//6
f 40//19 21//3 39//20
f 38//18 39//20 37//17
f 27//7 35//15 23//2
f 42//1 43//2 41//3
f 44//4 45//5 43//2
f 46//6 47//7 45//5
f 48//8 49//9 47//7
f 50//10 51//11 49//9
f 52//12 53//13 51//11
f 54//14 55//15 53//13
f 56//16 57//17 55//15
f 58//18 48//8 46//6
f 60//19 41//3 59//20
f 57//17 60//19 59//20
f 51//11 55//15 59//20
f 62//1 63//2 61//3
f 64//4 65//5 63//2
f 66//6 67//7 65//5
f 68//8 69//9 67//7
f 70//10 71//11 69//9
f 72//12 73//13 71//11
f 74//14 75//15 73//13
f 76//16 77//17 75//15
f 78//18 68//8 66//6
f 80//19 61//3 79//20
f 77//17 80//19 79//20
f 67//7 77//17 79//20
f 82//1 83//2 81//3
f 84//4 85//5 83//2
f 86//6 87//7 85//5
f 88//8 89//9 87//7
f 90//10 91//11 89//9
f 92//12 93//13 91//11
f 94//14 95//15 93//13
f 96//16 97//17 95//15
f 98//18 90//10 82//1
f 100//19 81//3 99//20
f 98//18 99//20 97//17
f 87//7 97//17 99//20
f 102//1 103//2 101//3
f 104//4 105//5 103//2
f 106//6 107//7 105//5
f 108//8 109//9 107//7
f 110//10 111//11 109//9
f 112//12 113//13 111//11
f 114//14 115//15 113//13
f 116//16 117//17 115//15
f 118//18 110//10 106//6
f 120//19 101//3 119//20
f 118//18 119//20 117//17
f 107//7 117//17 119//20
f 122//1 123//2 121//3
f 124//4 125//5 123//2
f 126//6 127//7 125//5
f 128//8 129//9 127//7
f 130//10 131//11 129//9
f 132//12 133//13 131//11
f 134//14 135//15 133//13
f 136//16 137//17 135//15
f 138//18 128//8 126//6
f 140//19 121//3 139//20
f 138//18 139//20 137//17
f 127//7 137//17 139//20
f 142//1 143//2 141//3
f 144//4 145//5 143//2
f 146//6 147//7 145//5
f 148//8 149//9 147//7
f 150//10 151//11 149//9
f 152//12 153//13 151//11
f 154//14 155//15 153//13
f 156//16 157//17 155//15
f 158//18 148//8 146//6
f 160//19 141//3 159//20
f 158//18 159//20 157//17
f 147//7 157//17 159//20
f 162//1 163//2 161//3
f 164//4 165//5 163//2
f 166//6 167//7 165//5
f 168//8 169//9 167//7
f 170//10 171//11 169//9
f 172//12 173//13 171//11
f 174//14 175//15 173//13
f 176//16 177//17 175//15
f 178//18 168//8 166//6
f 180//19 161//3 179//20
f 178//18 179//20 177//17
f 167//7 175//15 179//20
f 182//1 183//2 181//3
f 184//4 185//5 183//2
f 186//6 187//7 185//5
f 188//8 189//9 187//7
f 190//10 191//11 189//9
f 192//12 193//13 191//11
f 194//14 195//15 193//13
f 196//16 197//17 195//15
f 198//18 188//8 186//6
f 200//19 181//3 199//20
f 198//18 199//20 197//17
f 187//7 195//15 199//20
f 2//1 4//4 3//2
f 4//4 6//6 5//5
f 6//6 8//8 7//7
f 8//8 10//10 9//9
f 10//10 12//12 11//11
f 12//12 14//14 13//13
f 14//14 16//16 15//15
f 16//16 18//18 17//17
f 6//6 4//4 2//1
f 2//1 20//19 18//18
f 18//18 16//16 10//10
f 14//14 12//12 10//10
f 10//10 8//8 6//6
f 6//6 2//1 10//10
f 16//16 14//14 10//10
f 20//19 2//1 1//3
f 18//18 20//19 19//20
f 19//20 1//3 3//2
f 3//2 5//5 7//7
f 7//7 9//9 11//11
f 11//11 13//13 7//7
f 15//15 17//17 19//20
f 19//20 3//2 7//7
f 7//7 13//13 15//15
f 22//1 24//4 23//2
f 24//4 26//6 25//5
f 26//6 28//8 27//7
f 28//8 30//10 29//9
f 30//10 32//12 31//11
f 32//12 34//14 33//13
f 34//14 36//16 35//15
f 36//16 38//18 37//17
f 26//6 24//4 38//18
f 22//1 40//19 38//18
f 38//18 36//16 30//10
f 34//14 32//12 30//10
f 30//10 28//8 38//18
f 24//4 22//1 38//18
f 36//16 34//14 30//10
f 40//19 22//1 21//3
f 38//18 40//19 39//20
f 39//20 21//3 23//2
f 23//2 25//5 27//7
f 27//7 29//9 31//11
f 31//11 33//13 35//15
f 35//15 37//17 39//20
f 39//20 23//2 35//15
f 27//7 31//11 35//15
f 42//1 44//4 43//2
f 44//4 46//6 45//5
f 46//6 48//8 47//7
f 48//8 50//10 49//9
f 50//10 52//12 51//11
f 52//12 54//14 53//13
f 54//14 56//16 55//15
f 56//16 58//18 57//17
f 46//6 44//4 58//18
f 42//1 60//19 58//18
f 58//18 56//16 54//14
f 54//14 52//12 58//18
f 50//10 48//8 58//18
f 44//4 42//1 58//18
f 58//18 52//12 50//10
f 60//19 42//1 41//3
f 57//17 58//18 60//19
f 59//20 41//3 43//2
f 43//2 45//5 59//20
f 47//7 49//9 51//11
f 51//11 53//13 55//15
f 55//15 57//17 59//20
f 59//20 45//5 47//7
f 47//7 51//11 59//20
f 62//1 64//4 63//2
f 64//4 66//6 65//5
f 66//6 68//8 67//7
f 68//8 70//10 69//9
f 70//10 72//12 71//11
f 72//12 74//14 73//13
f 74//14 76//16 75//15
f 76//16 78//18 77//17
f 66//6 64//4 62//1
f 62//1 80//19 78//18
f 78//18 76//16 74//14
f 74//14 72//12 78//18
f 70//10 68//8 78//18
f 66//6 62//1 78//18
f 78//18 72//12 70//10
f 80//19 62//1 61//3
f 77//17 78//18 80//19
f 79//20 61//3 63//2
f 63//2 65//5 79//20
f 67//7 69//9 71//11
f 71//11 73//13 75//15
f 75//15 77//17 67//7
f 79//20 65//5 67//7
f 67//7 71//11 75//15
f 82//1 84//4 83//2
f 84//4 86//6 85//5
f 86//6 88//8 87//7
f 88//8 90//10 89//9
f 90//10 92//12 91//11
f 92//12 94//14 93//13
f 94//14 96//16 95//15
f 96//16 98//18 97//17
f 86//6 84//4 82//1
f 82//1 100//19 98//18
f 98//18 96//16 94//14
f 94//14 92//12 90//10
f 90//10 88//8 86//6
f 86//6 82//1 90//10
f 98//18 94//14 90//10
f 100//19 82//1 81//3
f 98//18 100//19 99//20
f 99//20 81//3 83//2
f 83//2 85//5 99//20
f 87//7 89//9 91//11
f 91//11 93//13 87//7
f 95//15 97//17 87//7
f 99//20 85//5 87//7
f 87//7 93//13 95//15
f 102//1 104//4 103//2
f 104//4 106//6 105//5
f 106//6 108//8 107//7
f 108//8 110//10 109//9
f 110//10 112//12 111//11
f 112//12 114//14 113//13
f 114//14 116//16 115//15
f 116//16 118//18 117//17
f 106//6 104//4 102//1
f 102//1 120//19 118//18
f 118//18 116//16 114//14
f 114//14 112//12 110//10
f 110//10 108//8 106//6
f 106//6 102//1 118//18
f 118//18 114//14 110//10
f 120//19 102//1 101//3
f 118//18 120//19 119//20
f 119//20 101//3 103//2
f 103//2 105//5 119//20
f 107//7 109//9 111//11
f 111//11 113//13 107//7
f 115//15 117//17 107//7
f 119//20 105//5 107//7
f 107//7 113//13 115//15
f 122//1 124//4 123//2
f 124//4 126//6 125//5
f 126//6 128//8 127//7
f 128//8 130//10 129//9
f 130//10 132//12 131//11
f 132//12 134//14 133//13
f 134//14 136//16 135//15
f 136//16 138//18 137//17
f 126//6 124//4 138//18
f 122//1 140//19 138//18
f 138//18 136//16 130//10
f 134//14 132//12 130//10
f 130//10 128//8 138//18
f 124//4 122//1 138//18
f 136//16 134//14 130//10
f 140//19 122//1 121//3
f 138//18 140//19 139//20
f 139//20 121//3 123//2
f 123//2 125//5 139//20
f 127//7 129//9 131//11
f 131//11 133//13 127//7
f 135//15 137//17 127//7
f 139//20 125//5 127//7
f 127//7 133//13 135//15
f 142//1 144//4 143//2
f 144//4 146//6 145//5
f 146//6 148//8 147//7
f 148//8 150//10 149//9
f 150//10 152//12 151//11
f 152//12 154//14 153//13
f 154//14 156//16 155//15
f 156//16 158//18 157//17
f 146//6 144//4 142//1
f 142//1 160//19 158//18
f 158//18 156//16 150//10
f 154//14 152//12 150//10
f 150//10 148//8 158//18
f 146//6 142//1 158//18
f 156//16 154//14 150//10
f 160//19 142//1 141//3
f 158//18 160//19 159//20
f 159//20 141//3 143//2
f 143//2 145//5 159//20
f 147//7 149//9 151//11
f 151//11 153//13 155//15
f 155//15 157//17 147//7
f 159//20 145//5 147//7
f 147//7 151//11 155//15
f 162//1 164//4 163//2
f 164//4 166//6 165//5
f 166//6 168//8 167//7
f 168//8 170//10 169//9
f 170//10 172//12 171//11
f 172//12 174//14 173//13
f 174//14 176//16 175//15
f 176//16 178//18 177//17
f 166//6 164//4 162//1
f 162//1 180//19 166//6
f 178//18 176//16 174//14
f 174//14 172//12 170//10
f 170//10 168//8 178//18
f 166//6 180//19 178//18
f 178//18 174//14 170//10
f 180//19 162//1 161//3
f 178//18 180//19 179//20
f 179//20 161//3 163//2
f 163//2 165//5 167//7
f 167//7 169//9 171//11
f 171//11 173//13 167//7
f 175//15 177//17 179//20
f 179//20 163//2 167//7
f 167//7 173//13 175//15
f 182//1 184//4 183//2
f 184//4 186//6 185//5
f 186//6 188//8 187//7
f 188//8 190//10 189//9
f 190//10 192//12 191//11
f 192//12 194//14 193//13
f 194//14 196//16 195//15
f 196//16 198//18 197//17
f 186//6 184//4 198//18
f 182//1 200//19 198//18
f 198//18 196//16 194//14
f 194//14 192//12 190//10
f 190//10 188//8 198//18
f 184//4 182//1 198//18
f 198//18 194//14 190//10
f 200//19 182//1 181//3
f 198//18 200//19 199//20
f 199//20 181//3 183//2
f 183//2 185//5 187//7
f 187//7 189//9 191//11
f 191//11 193//13 187//7
f 195//15 197//17 199//20
f 199//20 183//2 187//7
f 187//7 193//13 195//15
o Drawer5
v 1.322400 0.896750 0.689638
v 1.322400 0.146750 0.689638
v -1.322400 0.146750 0.689638
v -1.322400 0.896750 0.689638
v 1.322400 0.896750 0.731138
v 1.322400 0.146750 0.731138
v -1.322400 0.146750 0.731138
v -1.322400 0.896750 0.731138
v -1.322400 1.046749 0.689638
v -1.322400 1.796749 0.689638
v 1.322400 1.796749 0.689638
v 1.322400 1.046749 0.689638
v -1.322400 1.046749 0.731138
v -1.322400 1.796749 0.731138
v 1.322400 1.796749 0.731138
v 1.322400 1.046749 0.731138
v 1.322400 2.696750 0.689638
v 1.322400 1.946750 0.689638
v -1.322400 1.946750 0.689638
v -1.322400 2.696750 0.689638
v 1.322400 2.696750 0.731138
v 1.322400 1.946750 0.731138
v -1.322400 1.946750 0.731138
v -1.322400 2.696750 0.731138
v -1.322400 2.846750 0.689638
v -1.322400 3.596750 0.689638
v 1.322400 3.596750 0.689638
v 1.322400 2.846750 0.689638
v -1.322400 2.846750 0.731138
v -1.322400 3.596750 0.731138
v 1.322400 3.596750 0.731138
v 1.322400 2.846750 0.731138
v 1.322400 4.496750 0.689638
v 1.322400 3.746750 0.689638
v -1.322400 3.746749 0.689638
v -1.322400 4.496749 0.689638
v 1.322400 4.496750 0.731138
v 1.322400 3.746750 0.731138
v -1.322400 3.746749 0.731138
v -1.322400 4.496749 0.731138
vn 1.000000 0.000000 0.000000
vn 0.000000 -1.000000 0.000000
vn -1.000000 0.000000 0.000000
vn -0.000000 1.000000 0.000000
vn -0.000000 0.000000 -1.000000
vn 0.000000 -0.000000 1.000000
usemtl wardrobe
s off
f 206//21 201//21 205//21
f 207//22 202//22 206//22
f 208//23 203//23 207//23
f 205//24 204//24 208//24
f 202//25 204//25 201//25
f 208//26 206//26 205//26
f 214//23 209//23 213//23
f 215//24 210//24 214//24
f 216//21 211//21 215//21
f 213//22 212//22 216//22
f 210//25 212//25 209//25
f 215//26 213//26 216//26
f 222//21 217//21 221//21
f 223//22 218//22 222//22
f 224//23 219//23 223//23
f 221//24 220//24 224//24
f 218//25 220//25 217//25
f 224//26 222//26 221//26
f 230//23 225//23 229//23
f 231//24 226//24 230//24
f 232//21 227//21 231//21
f 229//22 228//22 232//22
f 225//25 227//25 228//25
f 231//26 229//26 232//26
f 238//21 233//21 237//21
f 239//22 234//22 238//22
f 239//23 236//23 235//23
f 237//24 236//24 240//24
f 234//25 236//25 233//25
f 239//26 237//26 240//26
f 206//21 202//21 201//21
f 207//22 203//22 202//22
f 208//23 204//23 203//23
f 205//24 201//24 204//24
f 202//25 203//25 204//25
f 208//26 207//26 206//26
f 214//23 210//23 209//23
f 215//24 211//24 210//24
f 216//21 212//21 211//21
f 213//22 209//22 212//22
f 210//25 211//25 212//25
f 215//26 214//26 213//26
f 222//21 218//21 217//21
f 223//22 219//22 218//22
f 224//23 220//23 219//23
f 221//24 217//24 220//24
f 218//25 219//25 220//25
f 224//26 223//26 222//26
f 230//23 226//23 225//23
f 231//24 227//24 226//24
f 232//21 228//21 227//21
f 229//22 225//22 228//22
f 225//25 226//25 227//25
f 231//26 230//26 229//26
f 238//21 234//21 233//21
f 239//22 235//22 234//22
f 239//23 240//23 236//23
f 237//24 233//24 236//24
f 234//25 235//25 236//25
f 239//26 238//26 237//26
o Dresser
v -1.500000 4.624995 0.750000
v -1.500000 4.624995 -0.750000
v 1.500000 4.624995 -0.750000
v 1.500000 4.624995 0.750000
v -1.500000 4.708325 0.750000
v -1.500000 4.708325 -0.750000
v 1.500000 4.708325 -0.750000
v 1.500000 4.708325 0.750000
v -1.438727 4.624995 0.689635
v -1.438727 4.624995 -0.689635
v 1.438727 4.624995 -0.689635
v 1.438727 4.624995 0.689635
v -1.438727 0.017673 0.689635
v -1.438727 0.017673 -0.689635
v 1.438727 0.017673 -0.689635
v 1.438727 0.017673 0.689635
vn -1.000000 0.000000 0.000000
vn 0.000000 0.000000 -1.000000
vn 1.000000 0.000000 0.000000
vn 0.000000 0.000000 1.000000
vn 0.000000 -1.000000 0.000000
vn 0.000000 1.000000 0.000000
usemtl wardrobe
s off
f 246//27 241//27 245//27
f 247//28 242//28 246//28
f 248//29 243//29 247//29
f 245//30 244//30 248//30
f 252//31 241//31 249//31
f 247//32 245//32 248//32
f 256//30 249//30 253//30
f 251//31 244//31 252//31
f 249//31 242//31 250//31
f 250//31 243//31 251//31
f 254//31 256//31 253//31
f 253//27 250//27 254//27
f 254//28 251//28 255//28
f 255//29 252//29 256//29
f 246//27 242//27 241//27
f 247//28 243//28 242//28
f 248//29 244//29 243//29
f 245//30 241//30 244//30
f 252//31 244//31 241//31
f 247//32 246//32 245//32
f 256//30 252//30 249//30
f 251//31 243//31 244//31
f 249//31 241//31 242//31
f 250//31 242//31 243//31
f 254//31 255//31 256//31
f 253//27 249//27 250//27
f 254//28 250//28 251//28
f 255//29 251//29 252//29
