# Blender v2.77 (sub 0) OBJ File: 'samsung-t.blend'
# www.blender.org
mtllib television.mtl
o Plane
v 0.038897 0.571726 2.258778
v 0.038896 0.571726 -2.254515
v 0.038897 2.875726 2.258778
v 0.038897 2.875726 -2.254515
vt 0.998096 0.000075
vt 0.000075 0.999925
vt 0.000075 0.000075
vt 0.998096 0.999925
vn 1.000000 -0.000000 -0.000000
usemtl tvscreen
s off
f 2/1/1 3/2/1 1/3/1
f 2/1/1 4/4/1 3/2/1
o Cube_Cube.001
v -0.054210 0.541836 2.318618
v -0.054210 2.906406 2.318618
v -0.054210 0.541836 -2.318618
v -0.054210 2.906406 -2.318618
v 0.054210 0.571912 2.259635
v 0.054210 2.876331 2.259635
v 0.054210 0.571912 -2.259635
v 0.054210 2.876331 -2.259635
v 0.054210 2.906406 -2.318618
v 0.054210 0.541836 -2.318618
v 0.054210 2.906406 2.318618
v 0.054210 0.541836 2.318618
v 0.038203 2.876331 -2.259635
v 0.038203 0.571912 -2.259635
v 0.038203 2.876331 2.259635
v 0.038203 0.571912 2.259635
v -0.080524 0.678924 2.049771
v -0.080524 2.769319 2.049771
v -0.080524 2.769319 -2.049771
v -0.080524 0.678924 -2.049771
v -0.132175 1.433528 0.569892
v -0.132175 2.014715 0.569892
v -0.132175 2.014715 -0.569892
v -0.132175 1.433528 -0.569892
v -0.054210 2.906406 0.000000
v -0.054210 0.541836 0.000000
v 0.054210 2.906406 0.000000
v 0.054210 0.541836 0.000000
v 0.054210 2.876331 0.000000
v 0.054210 0.571912 0.000000
v 0.038203 2.876331 0.000000
v 0.038203 0.571912 0.000000
v -0.080524 2.769319 0.000000
v -0.106349 1.056226 -0.423417
v -0.132175 2.014715 0.000000
v -0.132175 1.433528 0.000000
v -0.080524 0.678924 0.000000
v -0.106349 1.056226 0.430530
v -0.080524 0.678924 0.430530
v -0.106349 1.056226 0.000000
v -0.115320 0.934556 -0.194320
v -0.103374 0.760037 0.001529
v -0.103374 0.760037 -0.194320
v -0.115320 0.934556 0.200669
v -0.103374 0.760037 0.200669
v -0.123264 0.670494 0.082253
v -0.100736 0.409250 0.111804
v -0.115366 0.411512 -0.085591
v -0.144625 0.416038 -0.013395
v -0.100736 0.409250 -0.032716
v -0.387332 0.118809 -0.883379
v -0.144625 0.416038 0.053452
v -0.129995 0.413775 0.072903
v -0.144625 0.416038 -0.046819
v 0.290546 0.013967 -1.264618
v 0.290546 0.013967 -1.561514
v 0.230437 0.023264 -1.238156
v -0.080524 0.678924 -0.423417
v -0.089967 0.665344 -0.167274
v -0.089967 0.665344 0.174158
v -0.123264 0.670494 -0.075675
v -0.129995 0.413775 -0.066205
v -0.144625 0.416038 0.020029
v -0.100736 0.409250 0.039544
v -0.115366 0.411512 0.092354
v 0.290546 0.013967 1.566629
v -0.100736 0.409250 -0.104977
v -0.129995 0.413775 0.026534
v -0.115366 0.411512 0.033039
v -0.129995 0.413775 -0.019836
v -0.115366 0.411512 -0.026276
v -0.327224 0.109513 -0.963030
v -0.327224 0.109513 -0.772513
v -0.387332 0.118809 -0.746051
v -0.327224 0.109513 0.774895
v -0.327224 0.109513 0.965412
v -0.387332 0.118809 0.748167
v -0.387332 0.118809 0.885495
v 0.290546 0.013967 1.269732
v 0.230437 0.023264 1.243005
v 0.230437 0.023264 1.486712
v 0.230437 0.023264 -1.481863
vt 1.000000 0.000000
vt 0.000000 1.000000
vt 0.000000 0.000000
vt 1.000000 0.000000
vt 0.000000 1.000000
vt 0.000000 0.000000
vt 1.000000 0.000000
vt 0.000000 1.000000
vt 0.000000 0.000000
vt 1.000000 0.000000
vt 0.000000 1.000000
vt 0.000000 0.000000
vt 0.933013 0.250000
vt 0.500000 0.000000
vt 0.500000 1.000000
vt 0.750000 0.933013
vt 0.250000 0.066987
vt 0.066987 0.250000
vt 1.000000 0.000000
vt 0.000000 1.000000
vt 0.000000 0.000000
vt 1.000000 0.000000
vt 0.000000 1.000000
vt 0.000000 0.000000
vt 1.000000 0.000000
vt 0.000000 1.000000
vt 0.000000 0.000000
vt 1.000000 0.000000
vt 0.000000 1.000000
vt 0.000000 0.000000
vt 0.933013 0.250000
vt 0.500000 0.000000
vt 0.500000 1.000000
vt 0.000000 1.000000
vt 0.000000 1.000000
vt 0.000000 0.000000
vt 1.000000 0.000000
vt 0.000000 1.000000
vt 0.000000 0.000000
vt 0.933013 0.750000
vt 0.500000 0.000000
vt 0.500000 1.000000
vt 1.000000 0.000000
vt 0.000000 1.000000
vt 0.000000 0.000000
vt 1.000000 0.000000
vt 0.000000 1.000000
vt 0.000000 0.000000
vt 1.000000 1.000000
vt 0.000000 1.000000
vt 1.000000 0.000000
vt 0.933013 0.250000
vt 0.500000 1.000000
vt 1.000000 0.000000
vt 0.000000 1.000000
vt 0.000000 0.000000
vt 0.000000 0.000000
vt 1.000000 1.000000
vt 0.000000 0.000000
vt 1.000000 0.000000
vt 1.000000 1.000000
vt 0.933013 0.250000
vt 0.500000 0.000000
vt 0.500000 1.000000
vt 1.000000 0.000000
vt 0.000000 1.000000
vt 0.000000 0.000000
vt 1.000000 0.000000
vt 0.000000 1.000000
vt 0.000000 0.000000
vt 0.000000 1.000000
vt 0.000000 0.000000
vt 1.000000 0.000000
vt 0.000000 1.000000
vt 0.000000 0.000000
vt 0.933013 0.750000
vt 0.500000 0.000000
vt 0.500000 1.000000
vt 0.000000 0.000000
vt 1.000000 1.000000
vt 0.000000 1.000000
vt 0.000000 1.000000
vt 0.000000 0.000000
vt 1.000000 0.000000
vt 0.000000 1.000000
vt 0.000000 0.000000
vt 0.000000 0.000000
vt 1.000000 0.000000
vt 1.000000 1.000000
vt 1.000000 1.000000
vt 0.000000 1.000000
vt 0.000000 1.000000
vt 1.000000 1.000000
vt 0.000000 1.000000
vt 0.000000 0.000000
vt 0.933013 0.750000
vt 0.066987 0.250000
vt 0.066987 0.750000
vt 0.933013 0.750000
vt 0.500000 0.000000
vt 0.066987 0.250000
vt 0.933013 0.750000
vt 0.500000 0.000000
vt 0.066987 0.250000
vt 0.933013 0.250000
vt 0.500000 0.000000
vt 0.500000 1.000000
vt 1.000000 0.000000
vt 0.000000 1.000000
vt 0.000000 0.000000
vt 1.000000 1.000000
vt 0.000000 1.000000
vt 1.000000 0.000000
vt 0.000000 1.000000
vt 0.000000 0.000000
vt 1.000000 0.000000
vt 0.000000 0.000000
vt 1.000000 0.000000
vt 0.000000 1.000000
vt 0.000000 0.000000
vt 0.000000 0.000000
vt 1.000000 1.000000
vt 0.000000 1.000000
vt 0.000000 0.000000
vt 1.000000 1.000000
vt 0.000000 1.000000
vt 0.000000 0.000000
vt 1.000000 1.000000
vt 0.000000 0.000000
vt 1.000000 1.000000
vt 0.000000 1.000000
vt 1.000000 0.000000
vt 0.000000 1.000000
vt 0.000000 0.000000
vt 1.000000 0.000000
vt 0.000000 1.000000
vt 0.000000 0.000000
vt 0.000000 0.000000
vt 1.000000 1.000000
vt 0.000000 0.000000
vt 1.000000 1.000000
vt 1.000000 0.000000
vt 0.000000 1.000000
vt 0.000000 0.000000
vt 0.000000 1.000000
vt 1.000000 0.000000
vt 0.000000 1.000000
vt 1.000000 1.000000
vt 0.000000 0.000000
vt 1.000000 1.000000
vt 0.000000 1.000000
vt 0.000000 0.000000
vt 1.000000 1.000000
vt 0.000000 1.000000
vt 1.000000 0.000000
vt 0.000000 1.000000
vt 0.000000 0.000000
vt 1.000000 1.000000
vt 0.000000 1.000000
vt 0.933013 0.750000
vt 0.500000 0.000000
vt 0.500000 1.000000
vt 1.000000 1.000000
vt 1.000000 1.000000
vt 1.000000 1.000000
vt 0.066987 0.750000
vt 0.066987 0.250000
vt 0.933013 0.750000
vt 0.933013 0.750000
vt 1.000000 0.500000
vt 0.933013 0.250000
vt 0.750000 0.066987
vt 0.500000 0.000000
vt 0.000000 0.500000
vt 0.066987 0.750000
vt 0.500000 1.000000
vt 0.250000 0.933013
vt 1.000000 1.000000
vt 1.000000 1.000000
vt 1.000000 1.000000
vt 1.000000 1.000000
vt 0.066987 0.750000
vt 0.066987 0.250000
vt 0.933013 0.750000
vt 1.000000 1.000000
vt 1.000000 1.000000
vt 1.000000 1.000000
vt 0.066987 0.750000
vt 0.933013 0.250000
vt 0.066987 0.250000
vt 1.000000 1.000000
vt 1.000000 1.000000
vt 0.066987 0.750000
vt 0.066987 0.250000
vt 0.933013 0.750000
vt 1.000000 0.000000
vt 0.066987 0.750000
vt 0.066987 0.250000
vt 0.933013 0.750000
vt 1.000000 1.000000
vt 1.000000 1.000000
vt 1.000000 1.000000
vt 0.066987 0.750000
vt 0.933013 0.250000
vt 0.066987 0.250000
vt 1.000000 0.000000
vt 1.000000 1.000000
vt 1.000000 1.000000
vt 1.000000 1.000000
vt 0.500000 1.000000
vt 0.933013 0.250000
vt 0.500000 0.000000
vt 0.066987 0.750000
vt 0.500000 1.000000
vt 0.933013 0.250000
vt 0.066987 0.750000
vt 0.500000 1.000000
vt 0.933013 0.250000
vt 0.066987 0.750000
vt 0.066987 0.250000
vt 0.933013 0.750000
vt 1.000000 1.000000
vt 1.000000 0.000000
vt 1.000000 1.000000
vt 1.000000 1.000000
vt 1.000000 1.000000
vt 1.000000 0.000000
vt 1.000000 0.000000
vt 1.000000 0.000000
vt 1.000000 1.000000
vt 1.000000 0.000000
vt 1.000000 0.000000
vt 1.000000 1.000000
vt 1.000000 1.000000
vt 1.000000 0.000000
vt 1.000000 0.000000
vt 1.000000 0.000000
vt 0.066987 0.750000
vt 0.933013 0.250000
vt 0.066987 0.250000
vt 0.000000 0.000000
vt 1.000000 0.000000
vt 0.000000 0.000000
vt 1.000000 0.000000
vt 1.000000 1.000000
vt 1.000000 1.000000
vt 1.000000 1.000000
vt 0.000000 0.000000
vt 1.000000 0.000000
vt 0.000000 0.000000
vt 1.000000 0.000000
vt 1.000000 1.000000
vn 0.000000 0.000000 -1.000000
vn 0.000000 0.000000 1.000000
vn 0.000000 -1.000000 0.000000
vn -0.982100 0.188500 0.000000
vn 1.000000 0.000000 0.000000
vn 0.000000 1.000000 0.000000
vn -0.999400 0.000000 -0.034900
vn -0.997700 0.068300 0.000000
vn -0.995200 0.000000 -0.097400
vn -0.995200 0.000000 0.097400
vn -0.999400 0.000000 0.034900
vn -1.000000 0.000000 0.000000
vn -0.997700 -0.068300 0.000000
vn 0.997700 0.068300 0.000000
vn 0.997300 -0.073500 0.000000
vn -0.982100 -0.188500 0.000000
vn 0.152800 0.988300 0.000000
vn -0.839100 0.543900 0.000000
vn 0.216400 -0.937700 -0.271800
vn 0.921000 0.220400 -0.321300
vn 0.976200 -0.216800 0.000000
vn 0.987300 0.152500 0.044500
vn -0.962500 -0.271200 0.000000
vn 0.994900 0.068100 -0.074900
vn -0.994800 -0.068100 -0.075100
vn -0.821000 0.570900 0.000000
vn 0.798300 0.001300 0.602300
vn 0.996500 -0.083700 0.000000
vn -0.999100 0.042000 0.000000
vn 0.799200 0.000900 -0.601000
vn 0.152800 0.988200 0.000000
vn 0.287100 -0.902200 0.322000
vn 0.214300 -0.938400 0.271200
vn 0.774600 -0.632500 0.000000
vn -0.019400 0.928700 -0.370300
vn -0.021700 0.928100 0.371600
vn -0.710700 -0.703500 0.000000
vn 0.013100 0.953200 0.302100
vn 0.746700 0.665100 0.000000
vn 0.289800 -0.901000 -0.322700
vn 0.014900 0.953400 -0.301200
vn 0.987300 0.152200 -0.044400
vn 0.920300 0.222300 0.322000
vn 0.939700 0.043000 0.339200
vn 0.940100 0.042800 -0.338200
vn 0.289700 -0.901000 -0.322700
usemtl tvBlack
s off
f 13/5/2 7/6/2 8/7/2
f 9/8/2 19/9/2 10/10/2
f 6/11/3 16/12/3 15/13/3
f 7/14/4 32/15/4 30/16/4
f 23/17/5 37/18/5 29/19/5
f 10/20/6 31/21/6 15/22/6
f 12/23/3 18/24/3 11/25/3
f 11/26/7 36/27/7 34/28/7
f 10/29/4 35/30/4 33/31/4
f 24/32/8 27/33/8 23/34/8
f 27/35/9 39/36/9 37/37/9
f 7/14/10 23/38/10 8/7/10
f 6/11/11 21/39/11 5/40/11
f 22/41/12 25/42/12 21/43/12
f 27/44/13 40/45/13 39/46/13
f 33/47/4 17/48/4 12/49/4
f 34/50/7 20/51/7 9/52/7
f 11/25/6 32/53/6 14/54/6
f 30/55/4 16/12/4 5/40/4
f 25/56/14 40/45/14 41/57/14
f 49/58/15 45/59/15 48/60/15
f 38/61/16 48/62/16 45/59/16
f 42/63/3 38/64/3 44/65/3
f 21/66/17 41/67/17 30/68/17
f 75/69/18 72/70/18 73/71/18
f 79/72/18 82/73/18 80/74/18
f 79/72/19 57/75/19 72/76/19
f 80/77/20 56/78/20 57/79/20
f 19/80/6 36/81/6 35/82/6
f 49/83/21 64/84/21 50/85/21
f 49/58/22 65/86/22 47/87/22
f 47/88/23 63/89/23 62/90/23
f 41/91/3 62/92/3 43/93/3
f 41/91/24 49/94/24 46/95/24
f 42/63/25 49/94/25 48/96/25
f 38/61/26 47/97/26 45/59/26
f 62/92/27 64/98/27 43/99/27
f 65/100/28 52/101/28 71/102/28
f 50/103/29 67/104/29 53/105/29
f 63/106/30 54/107/30 68/108/30
f 51/109/31 69/110/31 50/111/31
f 74/112/18 67/113/18 72/76/18
f 59/114/32 86/115/32 61/116/32
f 86/117/33 71/118/33 52/119/33
f 73/120/18 57/75/18 69/121/18
f 54/122/18 73/123/18 68/124/18
f 75/125/18 66/126/18 74/127/18
f 77/128/18 55/129/18 78/130/18
f 66/131/19 77/132/19 74/127/19
f 58/133/34 76/134/34 66/135/34
f 78/136/35 58/137/35 53/138/35
f 77/139/36 53/140/36 74/141/36
f 67/142/37 79/143/37 72/70/37
f 56/144/35 81/145/35 67/113/35
f 83/146/32 85/147/32 70/148/32
f 83/146/38 51/149/38 68/124/38
f 84/150/39 68/151/39 73/71/39
f 69/121/40 84/152/40 73/123/40
f 51/153/41 85/154/41 69/155/41
f 71/156/38 59/157/38 54/158/38
f 61/159/40 52/160/40 75/125/40
f 54/161/42 61/162/42 75/163/42
f 13/164/7 29/165/7 31/166/7
f 13/5/2 14/167/2 7/6/2
f 9/8/2 20/168/2 19/9/2
f 6/11/3 5/169/3 16/12/3
f 7/14/4 14/167/4 32/15/4
f 6/170/5 29/19/5 22/171/5
f 8/172/5 23/17/5 29/19/5
f 37/18/5 22/171/5 29/19/5
f 10/20/6 33/173/6 31/21/6
f 12/174/6 11/175/6 14/176/6
f 13/177/6 31/21/6 12/174/6
f 16/178/6 32/179/6 9/180/6
f 32/179/6 34/181/6 9/180/6
f 12/174/6 14/176/6 13/177/6
f 16/178/6 9/180/6 10/20/6
f 33/173/6 12/174/6 31/21/6
f 15/22/6 16/178/6 10/20/6
f 12/23/3 17/182/3 18/24/3
f 11/26/7 18/183/7 36/27/7
f 10/29/4 19/184/4 35/30/4
f 24/32/8 28/185/8 27/33/8
f 22/186/9 37/37/9 26/187/9
f 23/188/9 27/35/9 37/37/9
f 39/36/9 26/187/9 37/37/9
f 7/14/10 24/189/10 23/38/10
f 6/11/11 22/190/11 21/39/11
f 22/41/12 26/191/12 25/42/12
f 26/192/13 39/46/13 40/45/13
f 27/44/13 28/193/13 40/45/13
f 40/45/13 25/194/13 26/192/13
f 33/47/4 35/195/4 17/48/4
f 34/50/7 36/196/7 20/51/7
f 11/25/6 34/50/6 32/53/6
f 30/55/4 32/53/4 16/12/4
f 24/197/14 41/57/14 28/198/14
f 21/199/14 25/56/14 41/57/14
f 40/45/14 28/198/14 41/57/14
f 49/58/15 47/97/15 45/59/15
f 38/61/16 42/200/16 48/62/16
f 7/201/17 30/68/17 24/202/17
f 5/203/17 21/66/17 30/68/17
f 41/67/17 24/202/17 30/68/17
f 75/69/18 74/204/18 72/70/18
f 79/72/18 81/145/18 82/73/18
f 79/72/19 80/205/19 57/75/19
f 80/77/20 82/206/20 56/78/20
f 17/207/6 35/82/6 36/81/6
f 19/80/6 20/208/6 36/81/6
f 36/81/6 18/209/6 17/207/6
f 49/83/43 43/210/43 64/84/43
f 49/58/22 50/211/22 65/86/22
f 47/88/44 65/212/44 63/89/44
f 41/91/24 43/210/24 49/94/24
f 42/63/25 43/210/25 49/94/25
f 38/61/26 62/92/26 47/97/26
f 62/92/27 63/213/27 64/98/27
f 71/102/45 63/214/45 65/100/45
f 65/100/28 58/215/28 66/216/28
f 66/216/28 52/101/28 65/100/28
f 58/217/29 65/218/29 53/105/29
f 50/103/29 56/219/29 67/104/29
f 53/105/29 65/218/29 50/103/29
f 51/220/30 64/221/30 68/108/30
f 63/106/30 71/222/30 54/107/30
f 68/108/30 64/221/30 63/106/30
f 56/223/31 50/111/31 57/224/31
f 64/225/46 51/109/46 50/111/46
f 57/224/31 50/111/31 69/110/31
f 74/112/18 53/226/18 67/113/18
f 59/114/32 60/227/32 86/115/32
f 86/117/33 60/228/33 71/118/33
f 73/120/18 72/229/18 57/75/18
f 54/122/18 75/230/18 73/123/18
f 75/125/18 52/231/18 66/126/18
f 77/128/18 76/232/18 55/129/18
f 66/131/19 76/232/19 77/132/19
f 58/133/34 55/233/34 76/134/34
f 78/136/35 55/129/35 58/137/35
f 77/139/36 78/234/36 53/140/36
f 67/142/37 81/235/37 79/143/37
f 56/144/35 82/236/35 81/145/35
f 83/146/32 84/152/32 85/147/32
f 83/146/38 70/237/38 51/149/38
f 84/150/39 83/238/39 68/151/39
f 69/121/40 85/239/40 84/152/40
f 51/153/47 70/240/47 85/154/47
f 71/156/38 60/227/38 59/157/38
f 61/159/40 86/115/40 52/160/40
f 54/161/42 59/241/42 61/162/42
f 15/242/7 31/166/7 29/165/7
f 13/164/7 8/243/7 29/165/7
f 29/165/7 6/244/7 15/242/7
usemtl tvBlack
f 17/245/3 19/246/3 35/195/3
f 20/247/3 18/248/3 36/196/3
f 9/52/3 11/26/3 34/249/3
f 12/49/3 10/29/3 33/250/3
f 15/13/3 13/5/3 31/251/3
f 14/252/3 16/253/3 32/53/3
f 7/254/3 5/255/3 30/256/3
